<svg width="133" height="45" viewBox="0 0 133 45" fill="none" xmlns="http://www.w3.org/2000/svg">
<path d="M111.263 21.1252C110.39 20.5351 109.767 20.4618 108.848 21.0849C104.475 24.0719 100.048 26.9746 95.6424 29.9102C95.2576 30.1631 94.8948 30.4527 94.4513 30.7825C94.6859 31.1344 94.9278 31.4862 95.177 31.8417C95.7341 32.626 96.3021 33.3664 96.8812 34.07C100.029 28.961 103.863 26.0583 106.124 25.6148C108.298 25.1897 110.072 25.6881 110.072 25.6881C110.757 25.8824 111.292 26.084 111.593 26.3039C114.264 28.2317 117.046 29.9982 119.736 31.8014C119.714 31.981 119.725 32.0469 119.696 32.0873C117.556 35.2978 117.394 35.3198 114.242 33.2198C111.036 31.0867 110.808 30.8338 110.083 30.7495C108.932 30.6139 107.832 31.3946 105.681 32.9559C103.09 34.8397 101.052 36.3387 99.7912 37.2696C103.76 41.1875 107.711 43.5075 110.138 44.7499C111.058 44.2625 112.175 43.6284 113.425 42.8184C112.707 42.8038 110.27 42.6609 108.228 40.7954C107.114 39.7765 106.553 38.6403 106.275 37.9403C107.455 37.134 108.371 36.3753 109.405 35.8586C109.815 35.6533 110.596 35.8329 111.036 36.1078C113.015 37.3466 114.946 38.666 117.138 40.1283C119.938 37.8707 122.969 34.847 125.648 30.8741L111.263 21.1252Z" fill="#1FD300"/>
<path d="M40.9383 6.22687V13.6705C40.9383 15.9355 40.3592 17.6251 39.1974 18.7393C38.0393 19.8534 36.2434 20.4105 33.8172 20.4105C31.6218 20.4105 29.9982 19.9524 28.9354 19.0361C27.8029 19.9524 26.2122 20.4105 24.1635 20.4105C22.7415 20.4105 21.62 20.1759 20.7917 19.7105C20.055 21.8509 18.8272 23.5441 17.112 24.7939C15.3968 26.0436 13.2857 26.6667 10.7898 26.6667C8.54317 26.6667 6.60437 26.1536 4.9771 25.1311C3.34983 24.1048 2.11472 22.7011 1.2681 20.9126C0.42148 19.1241 0 17.1157 0 14.8873C0 13.8978 0.0989603 12.8642 0.296872 11.7867L5.58183 13.2417C5.49021 13.8721 5.44622 14.4292 5.44622 14.913C5.44622 17.178 5.91169 18.9262 6.84993 20.1576C7.78451 21.3891 9.09659 22.0048 10.7862 22.0048C12.4574 22.0048 13.7658 21.3854 14.7114 20.143C15.657 18.9042 16.1261 17.1596 16.1261 14.913C16.1261 13.5826 15.9392 12.2082 15.5617 10.7862L20.6597 8.87301C21.2718 10.8851 21.576 12.8899 21.576 14.8873V15.3711C21.9901 15.6057 22.5839 15.7229 23.3572 15.7229C24.2368 15.7229 24.8269 15.569 25.1237 15.2648C25.4206 14.9606 25.5672 14.4219 25.5672 13.6485V7.58293H31.0134V13.6779C31.0134 14.2716 30.9768 14.7847 30.9071 15.2135C31.0867 15.4114 31.3433 15.547 31.6768 15.6167C32.0103 15.69 32.4648 15.7229 33.0402 15.7229C33.7219 15.7229 34.235 15.6643 34.5758 15.547C34.9167 15.4297 35.1549 15.2282 35.2905 14.9386C35.4261 14.6528 35.4921 14.2203 35.4921 13.6449V6.23053H40.9383V6.22687Z" fill="#00A4FF"/>
<path d="M41.7996 22.0561C42.7525 22.0378 43.4232 21.8215 43.808 21.4074C44.1928 20.9932 44.3871 20.2566 44.3871 19.1974V6.2525H49.8333V19.1974C49.8333 20.6524 49.5328 21.9351 48.9317 23.0383C48.3306 24.1451 47.4804 25.0101 46.3845 25.6405C45.2887 26.2709 43.9949 26.619 42.4996 26.6923L41.7996 22.0561Z" fill="#00A4FF"/>
<path d="M61.741 16.3533C61.8399 16.7748 61.8876 17.3392 61.8876 18.0392C61.8876 18.7576 61.8363 19.333 61.741 19.7655C61.642 20.1979 61.5101 20.4142 61.3488 20.4142H53.0146V0H58.4608V15.7229H61.3452C61.5137 15.7193 61.642 15.9319 61.741 16.3533Z" fill="#00A4FF"/>
<path d="M78.6367 15.7193L77.7461 20.4105H61.3525C61.1912 20.4105 61.0593 20.1943 60.9603 19.7618C60.8614 19.3293 60.8137 18.7539 60.8137 18.0356C60.8137 17.3355 60.865 16.7711 60.9603 16.3496C61.0593 15.9282 61.1912 15.7156 61.3525 15.7156H72.3805V14.2056C72.3805 13.0548 72.0177 12.1385 71.2883 11.4568C70.559 10.7752 69.5951 10.4306 68.3893 10.4306C67.0406 10.4306 65.8091 10.8338 64.695 11.6438L62.3237 7.30071C64.2112 6.25985 66.2343 5.73575 68.3893 5.73575C70.1522 5.73575 71.7501 6.09858 73.1905 6.82792C74.6272 7.55726 75.7597 8.56148 76.588 9.8479C77.4163 11.1343 77.8267 12.5857 77.8267 14.2019V15.7119H78.6367V15.7193Z" fill="#00A4FF"/>
<path d="M3.51109 32.3072V36.489H8.38923V32.3072H10.2621V42.0928H8.38923V38.1235H3.51109V42.0928H1.63826V32.3072H3.51109Z" fill="#1FD300"/>
<path d="M27.4437 40.022H22.6645L21.7995 42.0928H19.8571L24.1488 32.3072H26.0913L30.3281 42.0928H28.316L27.4437 40.022ZM26.773 38.4168L25.0687 34.3083L23.3315 38.4168H26.773Z" fill="#1FD300"/>
<path d="M46.0217 42.0928L44.3284 39.1974C44.2551 39.2084 44.1379 39.2121 43.9803 39.2121H41.7703V42.0928H39.8974V32.3072H43.9803C45.2484 32.3072 46.2269 32.6004 46.9159 33.1868C47.605 33.7732 47.9495 34.6051 47.9495 35.6753C47.9495 36.4413 47.7846 37.0937 47.4547 37.6324C47.1249 38.1749 46.6411 38.578 46.007 38.8492L48.1584 42.0928H46.0217ZM41.7739 37.5628H43.9839C44.6913 37.5628 45.2337 37.4089 45.6039 37.101C45.9777 36.7931 46.1646 36.3387 46.1646 35.7303C46.1646 35.1329 45.9777 34.6858 45.6039 34.3889C45.23 34.092 44.6913 33.9418 43.9839 33.9418H41.7739V37.5628Z" fill="#1FD300"/>
<path d="M60.2676 32.3072V42.0928H58.3948V32.3072H60.2676Z" fill="#1FD300"/>
<path d="M75.6644 34.1103C75.1366 33.9418 74.6748 33.8575 74.2717 33.8575C73.8246 33.8575 73.469 33.9418 73.2088 34.1103C72.9486 34.2789 72.8167 34.5098 72.8167 34.8104C72.8167 35.0816 72.9083 35.3051 73.0879 35.4884C73.2675 35.6716 73.4984 35.8182 73.7732 35.9355C74.0481 36.0528 74.4219 36.1811 74.8984 36.3204C75.5618 36.5146 76.1042 36.7125 76.5257 36.9068C76.9508 37.101 77.31 37.3905 77.6105 37.7754C77.9074 38.1565 78.0576 38.6623 78.0576 39.2854C78.0576 39.8828 77.8964 40.4032 77.5739 40.843C77.2514 41.2865 76.8079 41.6236 76.2471 41.8582C75.6827 42.0928 75.0377 42.2064 74.312 42.2064C73.546 42.2064 72.802 42.0634 72.0763 41.7812C71.3507 41.4954 70.7166 41.1179 70.1742 40.6414L70.9585 39.0471C71.4533 39.5053 72.0067 39.8644 72.6224 40.1247C73.2382 40.3849 73.8099 40.5168 74.3413 40.5168C74.8618 40.5168 75.2722 40.4179 75.5728 40.2163C75.8696 40.0147 76.0199 39.7435 76.0199 39.399C76.0199 39.1204 75.9283 38.8895 75.7487 38.7063C75.5654 38.523 75.3382 38.3764 75.056 38.2665C74.7738 38.1565 74.3926 38.0283 73.9089 37.889C73.2455 37.6947 72.7067 37.5042 72.2889 37.3172C71.8711 37.1303 71.5119 36.8481 71.2114 36.4706C70.9145 36.0931 70.7643 35.5983 70.7643 34.9826C70.7643 34.4145 70.9145 33.9198 71.2187 33.4946C71.5229 33.0695 71.9517 32.7433 72.5051 32.5087C73.0586 32.2742 73.6999 32.1606 74.4256 32.1606C75.0597 32.1606 75.6864 32.2522 76.3058 32.4391C76.9252 32.626 77.4786 32.8789 77.9624 33.1941L77.2074 34.8287C76.7053 34.5135 76.1922 34.2753 75.6644 34.1103Z" fill="#1FD300"/>
<path d="M113.854 3.05662L110.046 0.505768L106.242 3.05662L87.1066 15.8695L89.4632 19.388L110.046 5.60382L130.643 19.3953L133 15.8769L113.854 3.05662Z" fill="#00A4FF"/>
<path d="M113.854 12.538L110.046 9.99084L106.242 12.538L90.0496 23.3792L92.4062 26.9013L110.046 15.0889L127.462 26.751L129.819 23.2289L113.854 12.538Z" fill="#00A4FF"/>
</svg>
