<svg width="40" height="40" viewBox="0 0 40 40" fill="none" xmlns="http://www.w3.org/2000/svg">
<circle cx="20" cy="20" r="20" fill="#00A4FF"/>
<path d="M22.5333 13.4737C22.26 13.2003 21.7866 13.387 21.7866 13.767V16.0937C21.7866 17.067 22.6133 17.8737 23.62 17.8737C24.2533 17.8803 25.1333 17.8803 25.8866 17.8803C26.2666 17.8803 26.4666 17.4337 26.2 17.167C25.24 16.2003 23.52 14.4603 22.5333 13.4737Z" fill="white"/>
<path d="M25.6667 18.7935H23.7401C22.1601 18.7935 20.8734 17.5068 20.8734 15.9268V14.0002C20.8734 13.6335 20.5734 13.3335 20.2067 13.3335H17.3801C15.3267 13.3335 13.6667 14.6668 13.6667 17.0468V22.9535C13.6667 25.3335 15.3267 26.6668 17.3801 26.6668H22.6201C24.6734 26.6668 26.3334 25.3335 26.3334 22.9535V19.4602C26.3334 19.0935 26.0334 18.7935 25.6667 18.7935ZM19.6667 23.8335H17.0001C16.7267 23.8335 16.5001 23.6068 16.5001 23.3335C16.5001 23.0602 16.7267 22.8335 17.0001 22.8335H19.6667C19.9401 22.8335 20.1667 23.0602 20.1667 23.3335C20.1667 23.6068 19.9401 23.8335 19.6667 23.8335ZM21.0001 21.1668H17.0001C16.7267 21.1668 16.5001 20.9402 16.5001 20.6668C16.5001 20.3935 16.7267 20.1668 17.0001 20.1668H21.0001C21.2734 20.1668 21.5001 20.3935 21.5001 20.6668C21.5001 20.9402 21.2734 21.1668 21.0001 21.1668Z" fill="white"/>
</svg>
