<svg width="16" height="16" viewBox="0 0 16 16" fill="none" xmlns="http://www.w3.org/2000/svg">
<path d="M3.09224 0.626708C3.36097 0.5428 3.63977 0.5 3.92047 0.5C5.26966 0.5 6.26924 1.68804 6.26923 3.03159V6.04534C6.26923 7.38892 5.26965 8.57692 3.92047 8.57692C3.63977 8.57692 3.36097 8.53417 3.09224 8.45025L2.88682 8.38608C2.81668 8.36417 2.74767 8.33992 2.67987 8.31333C3.75008 10.4868 5.51326 12.2499 7.68667 13.3202C7.66008 13.2523 7.63583 13.1833 7.61392 13.1132L7.54975 12.9078C7.46583 12.639 7.42308 12.3602 7.42308 12.0795C7.42308 10.7303 8.61108 9.73075 9.95467 9.73075H12.9684C14.3119 9.73075 15.5 10.7303 15.5 12.0795C15.5 12.3602 15.4572 12.639 15.3733 12.9078L15.3092 13.1132C14.9355 14.3098 13.8667 15.1763 12.5883 15.4017C11.844 15.5328 11.0791 15.5328 10.3347 15.4017C10.3054 15.3965 10.2762 15.391 10.2472 15.3852C5.36904 14.4466 1.55337 10.6309 0.61485 5.75274C0.609025 5.72369 0.603533 5.69453 0.598375 5.66526C0.467208 4.92092 0.467208 4.15601 0.598375 3.41167C0.823642 2.13324 1.69023 1.06449 2.88683 0.69085L3.09224 0.626708Z" fill="#00A4FF"/>
<path d="M8.92733 1.826C10.4055 1.40483 12.0151 1.75711 13.129 2.87104C14.243 3.98497 14.5952 5.59461 14.1741 7.07272C14.0867 7.37922 14.2644 7.69839 14.5708 7.78572C14.8773 7.87297 15.1964 7.69539 15.2838 7.38897C15.8106 5.53986 15.3776 3.48783 13.9449 2.05515C12.5122 0.622464 10.4603 0.189464 8.61117 0.716314C8.30467 0.803622 8.12708 1.12281 8.21442 1.42925C8.30167 1.73567 8.62092 1.91331 8.92733 1.826Z" fill="#00A4FF"/>
<path d="M10.3719 3.92254C10.7611 3.845 11.2542 3.97574 11.6391 4.36065C12.024 4.74555 12.1548 5.23863 12.0773 5.62791C12.015 5.9404 12.2179 6.24417 12.5304 6.30641C12.8429 6.36865 13.1466 6.16579 13.2089 5.8533C13.368 5.0542 13.0888 4.1785 12.455 3.54475C11.8213 2.91101 10.9456 2.63176 10.1464 2.79092C9.83402 2.85316 9.6311 3.15694 9.69335 3.46943C9.7556 3.78191 10.0594 3.98478 10.3719 3.92254Z" fill="#00A4FF"/>
</svg>
