<svg width="45" height="45" viewBox="0 0 45 45" fill="none" xmlns="http://www.w3.org/2000/svg">
<circle cx="22.5" cy="22.5" r="22.5" fill="#00A4FF"/>
<g clip-path="url(#clip0_31_6508)">
<rect width="15" height="15" transform="translate(15 14.999)" fill="#00A4FF"/>
<path d="M22.5 14.999C18.3579 14.999 15 18.3569 15 22.499C15 26.0162 17.4216 28.9676 20.6883 29.7782V24.791H19.1418V22.499H20.6883V21.5114C20.6883 18.9587 21.8436 17.7755 24.3498 17.7755C24.825 17.7755 25.6449 17.8688 25.9803 17.9618V20.0393C25.8033 20.0207 25.4958 20.0114 25.1139 20.0114C23.8842 20.0114 23.409 20.4773 23.409 21.6884V22.499H25.8588L25.4379 24.791H23.409V29.9441C27.1227 29.4956 30.0003 26.3336 30.0003 22.499C30 18.3569 26.6421 14.999 22.5 14.999Z" fill="white"/>
</g>
<defs>
<clipPath id="clip0_31_6508">
<rect width="15" height="15" fill="white" transform="translate(15 14.999)"/>
</clipPath>
</defs>
</svg>
