<svg width="7" height="9" viewBox="0 0 7 9" fill="none" xmlns="http://www.w3.org/2000/svg">
<path fill-rule="evenodd" clip-rule="evenodd" d="M0.504416 3.43308C0.345761 3.27445 0.345761 3.01722 0.504416 2.85857L3.21275 0.150237C3.3714 -0.00841219 3.62859 -0.00841219 3.78724 0.150237L6.49559 2.85857C6.65424 3.01722 6.65424 3.27445 6.49559 3.43308C6.33694 3.59173 6.07971 3.59173 5.92107 3.43308L3.90624 1.41827V5.85417C3.90624 6.24054 4.02552 6.82917 4.37137 7.30952C4.70228 7.76912 5.2574 8.15625 6.20833 8.15625C6.43269 8.15625 6.61458 8.33814 6.61458 8.5625C6.61458 8.78686 6.43269 8.96875 6.20833 8.96875C4.99259 8.96875 4.19354 8.45308 3.71195 7.78423C3.2453 7.13613 3.09374 6.37059 3.09374 5.85417V1.41827L1.07891 3.43308C0.920253 3.59173 0.66307 3.59173 0.504416 3.43308Z" fill="#1FD300"/>
</svg>
