<svg width="13" height="16" viewBox="0 0 13 16" fill="none" xmlns="http://www.w3.org/2000/svg">
<path d="M11.3751 2.08273L7.63265 0.680234C7.01015 0.447734 5.99015 0.447734 5.36765 0.680234L1.62512 2.08273C0.762617 2.40523 0.0576172 3.42523 0.0576172 4.34023V9.91273C0.0576172 10.7977 0.642617 11.9602 1.35512 12.4927L4.58012 14.9002C5.63765 15.6952 7.37765 15.6952 8.43515 14.9002L11.6601 12.4927C12.3726 11.9602 12.9576 10.7977 12.9576 9.91273V4.34023C12.9426 3.42523 12.2376 2.40523 11.3751 2.08273ZM6.44765 4.27273C7.33265 4.27273 8.05265 4.99273 8.05265 5.87773C8.05265 6.74773 7.37015 7.44523 6.50765 7.47523H6.49265H6.47765C6.46265 7.47523 6.44765 7.47523 6.43265 7.47523C5.53265 7.44523 4.85762 6.74773 4.85762 5.87773C4.85012 4.99273 5.57015 4.27273 6.44765 4.27273ZM8.14265 11.2702C7.68515 11.5702 7.09265 11.7277 6.50015 11.7277C5.90765 11.7277 5.30765 11.5777 4.85762 11.2702C4.43012 10.9852 4.19762 10.5952 4.19012 10.1677C4.19012 9.74773 4.43012 9.34273 4.85762 9.05773C5.76515 8.45773 7.24265 8.45773 8.15015 9.05773C8.57765 9.34273 8.81765 9.73273 8.81765 10.1602C8.81015 10.5802 8.57015 10.9852 8.14265 11.2702Z" fill="black"/>
</svg>
