<svg width="38" height="38" viewBox="0 0 38 38" fill="none" xmlns="http://www.w3.org/2000/svg">
<rect width="38" height="38" rx="19" fill="#1FD300"/>
<path d="M18.8743 15.4848C19.5498 14.2729 19.8876 13.667 20.3926 13.667C20.8976 13.667 21.2354 14.2729 21.9109 15.4848L22.0857 15.7983C22.2776 16.1427 22.3736 16.3149 22.5233 16.4285C22.673 16.5421 22.8594 16.5843 23.2322 16.6686L23.5715 16.7454C24.8834 17.0422 25.5393 17.1906 25.6953 17.6925C25.8514 18.1943 25.4042 18.7172 24.5099 19.7629L24.2785 20.0335C24.0244 20.3307 23.8973 20.4793 23.8402 20.6631C23.783 20.8469 23.8022 21.0452 23.8406 21.4417L23.8756 21.8027C24.0108 23.198 24.0784 23.8957 23.6698 24.2058C23.2613 24.5159 22.6472 24.2331 21.4189 23.6676L21.1012 23.5213C20.7521 23.3606 20.5776 23.2803 20.3926 23.2803C20.2076 23.2803 20.0331 23.3606 19.6841 23.5213L19.3663 23.6676C18.138 24.2331 17.5239 24.5159 17.1153 24.2058C16.7068 23.8957 16.7744 23.198 16.9096 21.8027L16.9446 21.4417C16.983 21.0452 17.0022 20.8469 16.9451 20.6631C16.8879 20.4793 16.7608 20.3307 16.5067 20.0335L16.2753 19.7629C15.381 18.7172 14.9338 18.1943 15.0899 17.6925C15.2459 17.1906 15.9019 17.0422 17.2137 16.7454L17.5531 16.6686C17.9258 16.5843 18.1122 16.5421 18.2619 16.4285C18.4116 16.3149 18.5076 16.1427 18.6995 15.7983L18.8743 15.4848Z" fill="white"/>
<path opacity="0.5" fill-rule="evenodd" clip-rule="evenodd" d="M16.8303 14.4686C15.5093 14.0879 14.0922 14.289 12.7249 15.0897L12.5861 15.171C12.3478 15.3105 12.0415 15.2305 11.902 14.9922C11.7624 14.7539 11.8425 14.4476 12.0808 14.3081L12.2195 14.2268C13.7931 13.3052 15.4914 13.0421 17.1072 13.5077L17.2458 13.5476C17.5112 13.6241 17.6643 13.9012 17.5878 14.1665C17.5114 14.4319 17.2343 14.585 16.9689 14.5085L16.8303 14.4686ZM14.2242 17.6246C14.2476 17.8998 14.0436 18.1419 13.7684 18.1653C13.6663 18.174 13.5881 18.1789 13.5224 18.1831C13.4042 18.1906 13.3271 18.1955 13.226 18.2149C13.095 18.2401 12.9249 18.2933 12.6163 18.4476C12.3693 18.5711 12.069 18.471 11.9455 18.224C11.822 17.977 11.9221 17.6767 12.1691 17.5532C12.5271 17.3742 12.7869 17.2809 13.0375 17.2328C13.2021 17.2012 13.372 17.1902 13.5248 17.1802C13.5804 17.1766 13.6336 17.1731 13.6836 17.1689C13.9587 17.1454 14.2008 17.3495 14.2242 17.6246ZM14.9453 21.5711C14.156 21.3861 13.3244 21.5695 12.7021 22.0598C12.4852 22.2307 12.1708 22.1934 11.9999 21.9765C11.829 21.7596 11.8663 21.4453 12.0832 21.2743C12.9484 20.5926 14.0928 20.3442 15.1734 20.5974C15.4423 20.6604 15.6092 20.9295 15.5462 21.1983C15.4832 21.4672 15.2141 21.6341 14.9453 21.5711Z" fill="white"/>
</svg>
