<svg width="13" height="16" viewBox="0 0 13 16" fill="none" xmlns="http://www.w3.org/2000/svg">
<path d="M12.6419 9.5456L11.7944 8.1356C11.6069 7.8281 11.4419 7.2356 11.4419 6.8756V5.47309C11.4419 2.75059 9.2294 0.538086 6.5144 0.538086C3.79192 0.545586 1.57942 2.75059 1.57942 5.47309V6.8681C1.57942 7.2281 1.41442 7.8206 1.23442 8.1281L0.38692 9.5381C0.0644196 10.0856 -0.0105804 10.7081 0.19192 11.2481C0.39442 11.7956 0.851919 12.2306 1.45192 12.4256C2.26192 12.6956 3.07942 12.8906 3.91192 13.0331C3.99442 13.0481 4.07692 13.0556 4.15942 13.0706C4.26442 13.0856 4.37692 13.1006 4.48942 13.1156C4.68442 13.1456 4.87942 13.1681 5.0819 13.1831C5.5544 13.2281 6.0344 13.2506 6.5144 13.2506C6.9869 13.2506 7.4594 13.2281 7.9244 13.1831C8.0969 13.1681 8.2694 13.1531 8.4344 13.1306C8.5694 13.1156 8.7044 13.1006 8.8394 13.0781C8.9219 13.0706 9.0044 13.0556 9.0869 13.0406C9.9269 12.9056 10.7594 12.6956 11.5694 12.4256C12.1469 12.2306 12.5894 11.7956 12.7994 11.2406C13.0094 10.6781 12.9494 10.0631 12.6419 9.5456ZM7.0619 6.5006C7.0619 6.8156 6.8069 7.0706 6.4919 7.0706C6.1769 7.0706 5.9219 6.8156 5.9219 6.5006V4.17559C5.9219 3.86059 6.1769 3.60559 6.4919 3.60559C6.8069 3.60559 7.0619 3.86059 7.0619 4.17559V6.5006Z" fill="#292D32"/>
<path d="M8.62227 14.0075C8.30727 14.8775 7.47477 15.5 6.49977 15.5C5.90727 15.5 5.32227 15.26 4.90977 14.8325C4.66977 14.6075 4.48977 14.3075 4.38477 14C4.48227 14.015 4.57977 14.0225 4.68477 14.0375C4.85727 14.06 5.03727 14.0825 5.21727 14.0975C5.64477 14.135 6.07977 14.1575 6.51477 14.1575C6.94227 14.1575 7.36977 14.135 7.78977 14.0975C7.94727 14.0825 8.10477 14.075 8.25477 14.0525C8.37477 14.0375 8.49477 14.0225 8.62227 14.0075Z" fill="#292D32"/>
</svg>
