<svg width="40" height="40" viewBox="0 0 40 40" fill="none" xmlns="http://www.w3.org/2000/svg">
<circle cx="20" cy="20" r="20" fill="white"/>
<path fill-rule="evenodd" clip-rule="evenodd" d="M26.6667 19.9998C26.6667 23.1425 26.6667 24.7139 25.6904 25.6902C24.7141 26.6665 23.1428 26.6665 20.0001 26.6665C16.8574 26.6665 15.286 26.6665 14.3097 25.6902C13.3334 24.7139 13.3334 23.1425 13.3334 19.9998C13.3334 16.8572 13.3334 15.2858 14.3097 14.3095C15.286 13.3332 16.8574 13.3332 20.0001 13.3332C23.1428 13.3332 24.7141 13.3332 25.6904 14.3095C26.6667 15.2858 26.6667 16.8572 26.6667 19.9998ZM20.0001 16.1665C19.7239 16.1665 19.5001 16.3904 19.5001 16.6665V20.126L18.3536 18.9796C18.1583 18.7844 17.8418 18.7844 17.6465 18.9796C17.4513 19.1749 17.4513 19.4914 17.6465 19.6867L19.6465 21.6867C19.7403 21.7805 19.8675 21.8332 20.0001 21.8332C20.1327 21.8332 20.2599 21.7805 20.3536 21.6867L22.3536 19.6867C22.5489 19.4914 22.5489 19.1749 22.3536 18.9796C22.1584 18.7844 21.8418 18.7844 21.6465 18.9796L20.5001 20.126V16.6665C20.5001 16.3904 20.2762 16.1665 20.0001 16.1665ZM22.6667 22.8332C22.9429 22.8332 23.1667 23.057 23.1667 23.3332C23.1667 23.6093 22.9429 23.8332 22.6667 23.8332H17.3334C17.0573 23.8332 16.8334 23.6093 16.8334 23.3332C16.8334 23.057 17.0573 22.8332 17.3334 22.8332H22.6667Z" fill="black"/>
</svg>
