<svg width="15" height="16" viewBox="0 0 15 16" fill="none" xmlns="http://www.w3.org/2000/svg">
<path d="M14.6707 7.05395L13.6507 5.86895C13.4557 5.64395 13.2982 5.22395 13.2982 4.92395V3.64895C13.2982 2.85395 12.6457 2.20145 11.8507 2.20145H10.5757C10.2832 2.20145 9.85568 2.04395 9.63068 1.84895L8.44567 0.828945C7.92817 0.386445 7.08067 0.386445 6.55568 0.828945L5.37815 1.85645C5.15315 2.04395 4.72565 2.20145 4.43315 2.20145H3.13564C2.34064 2.20145 1.68814 2.85395 1.68814 3.64895V4.93145C1.68814 5.22395 1.53064 5.64395 1.34314 5.86895L0.330645 7.06145C-0.104355 7.57895 -0.104355 8.41895 0.330645 8.93645L1.34314 10.129C1.53064 10.354 1.68814 10.774 1.68814 11.0665V12.349C1.68814 13.144 2.34064 13.7965 3.13564 13.7965H4.43315C4.72565 13.7965 5.15315 13.954 5.37815 14.149L6.56318 15.169C7.08068 15.6115 7.92817 15.6115 8.45317 15.169L9.63818 14.149C9.86317 13.954 10.2832 13.7965 10.5832 13.7965H11.8582C12.6532 13.7965 13.3057 13.144 13.3057 12.349V11.074C13.3057 10.7815 13.4632 10.354 13.6582 10.129L14.6782 8.94395C15.1132 8.42645 15.1132 7.57145 14.6707 7.05395ZM10.6207 6.58145L6.99818 10.204C6.89318 10.309 6.75068 10.369 6.60068 10.369C6.45068 10.369 6.30817 10.309 6.20317 10.204L4.38814 8.38895C4.17065 8.17145 4.17065 7.81145 4.38814 7.59395C4.60565 7.37645 4.96565 7.37645 5.18315 7.59395L6.60068 9.01145L9.82568 5.78645C10.0432 5.56894 10.4032 5.56894 10.6207 5.78645C10.8382 6.00395 10.8382 6.36395 10.6207 6.58145Z" fill="#292D32"/>
</svg>
