<svg width="55" height="55" viewBox="0 0 55 55" fill="none" xmlns="http://www.w3.org/2000/svg">
<rect width="55" height="55" rx="24" transform="matrix(-1 0 0 1 55 0)" fill="#F7F7F7"/>
<path d="M36.7806 33.924C36.4328 34.7275 36.0211 35.4672 35.5441 36.1472C34.8939 37.0743 34.3615 37.716 33.9512 38.0724C33.3151 38.6573 32.6337 38.9568 31.9039 38.9739C31.3801 38.9739 30.7483 38.8248 30.0129 38.5224C29.2751 38.2214 28.597 38.0724 27.977 38.0724C27.3268 38.0724 26.6294 38.2214 25.8835 38.5224C25.1365 38.8248 24.5347 38.9824 24.0745 38.998C23.3748 39.0278 22.6772 38.7197 21.981 38.0724C21.5367 37.6848 20.9808 37.0204 20.315 36.0791C19.6006 35.0739 19.0133 33.9084 18.5531 32.5795C18.0604 31.1442 17.8133 29.7543 17.8133 28.4087C17.8133 26.8673 18.1464 25.5379 18.8135 24.4238C19.3378 23.529 20.0353 22.8231 20.9083 22.3049C21.7813 21.7867 22.7245 21.5227 23.7403 21.5058C24.2961 21.5058 25.025 21.6777 25.9308 22.0156C26.834 22.3546 27.414 22.5265 27.6682 22.5265C27.8583 22.5265 28.5026 22.3255 29.5948 21.9247C30.6276 21.5531 31.4993 21.3992 32.2134 21.4598C34.1485 21.6159 35.6023 22.3788 36.5691 23.753C34.8385 24.8016 33.9824 26.2703 33.9994 28.1544C34.0151 29.622 34.5474 30.8432 35.5938 31.8129C36.068 32.2629 36.5975 32.6107 37.1867 32.8578C37.0589 33.2283 36.924 33.5832 36.7806 33.924ZM32.3426 16.4601C32.3426 17.6104 31.9224 18.6844 31.0848 19.6785C30.0739 20.8602 28.8513 21.5431 27.5254 21.4354C27.5085 21.2974 27.4987 21.1521 27.4987 20.9995C27.4987 19.8953 27.9794 18.7135 28.8331 17.7472C29.2593 17.258 29.8014 16.8512 30.4587 16.5267C31.1146 16.2071 31.735 16.0303 32.3185 16C32.3355 16.1538 32.3426 16.3076 32.3426 16.4601V16.4601Z" fill="black"/>
</svg>
