<svg width="25" height="24" viewBox="0 0 25 24" fill="none" xmlns="http://www.w3.org/2000/svg">
<rect x="1" y="0.5" width="23" height="23" rx="11.5" fill="#F5F5F5"/>
<rect x="1" y="0.5" width="23" height="23" rx="11.5" stroke="white"/>
<path d="M12.5 13.167V16.667" stroke="#1FD300" stroke-width="1.5" stroke-linecap="round"/>
<path d="M14.25 13.7496L12.9125 12.4121C12.6847 12.1843 12.3153 12.1843 12.0875 12.4121L10.75 13.7496" stroke="#1FD300" stroke-width="1.5" stroke-linecap="round"/>
<path d="M17.1372 14.333C17.5154 13.9624 17.75 13.4459 17.75 12.8747C17.75 11.7471 16.8359 10.833 15.7083 10.833C15.5962 10.833 15.4862 10.842 15.379 10.8594C15.1074 8.86773 13.3996 7.33301 11.3333 7.33301C9.07817 7.33301 7.25 9.16118 7.25 11.4163C7.25 12.5589 7.71927 13.5919 8.47559 14.333" stroke="#1FD300" stroke-width="1.5" stroke-linecap="round"/>
</svg>
