<svg width="7" height="9" viewBox="0 0 7 9" fill="none" xmlns="http://www.w3.org/2000/svg">
<path fill-rule="evenodd" clip-rule="evenodd" d="M0.504339 3.43308C0.345685 3.27445 0.345685 3.01722 0.504339 2.85857L3.21267 0.150237C3.37133 -0.00841219 3.62851 -0.00841219 3.78716 0.150237L6.49551 2.85857C6.65416 3.01722 6.65416 3.27445 6.49551 3.43308C6.33687 3.59173 6.07964 3.59173 5.92099 3.43308L3.90617 1.41827V5.85417C3.90617 6.24054 4.02544 6.82917 4.3713 7.30952C4.7022 7.76912 5.25732 8.15625 6.20825 8.15625C6.43262 8.15625 6.6145 8.33814 6.6145 8.5625C6.6145 8.78686 6.43262 8.96875 6.20825 8.96875C4.99251 8.96875 4.19347 8.45308 3.71187 7.78423C3.24523 7.13613 3.09367 6.37059 3.09367 5.85417V1.41827L1.07883 3.43308C0.920177 3.59173 0.662993 3.59173 0.504339 3.43308Z" fill="#1C274C"/>
</svg>
