<svg width="15" height="16" viewBox="0 0 15 16" fill="none" xmlns="http://www.w3.org/2000/svg">
<path d="M15 8C15 3.8675 11.6325 0.5 7.5 0.5C3.3675 0.5 0 3.8675 0 8C0 10.175 0.9375 12.1325 2.4225 13.505C2.4225 13.5125 2.4225 13.5125 2.415 13.52C2.49 13.595 2.58 13.655 2.655 13.7225C2.7 13.76 2.7375 13.7975 2.7825 13.8275C2.9175 13.94 3.0675 14.045 3.21 14.15C3.2625 14.1875 3.3075 14.2175 3.36 14.255C3.5025 14.3525 3.6525 14.4425 3.81 14.525C3.8625 14.555 3.9225 14.5925 3.975 14.6225C4.125 14.705 4.2825 14.78 4.4475 14.8475C4.5075 14.8775 4.5675 14.9075 4.6275 14.93C4.7925 14.9975 4.9575 15.0575 5.1225 15.11C5.1825 15.1325 5.2425 15.155 5.3025 15.17C5.4825 15.2225 5.6625 15.2675 5.8425 15.3125C5.895 15.3275 5.9475 15.3425 6.0075 15.35C6.2175 15.395 6.4275 15.425 6.645 15.4475C6.675 15.4475 6.705 15.455 6.735 15.4625C6.99 15.485 7.245 15.5 7.5 15.5C7.755 15.5 8.01 15.485 8.2575 15.4625C8.2875 15.4625 8.3175 15.455 8.3475 15.4475C8.565 15.425 8.775 15.395 8.985 15.35C9.0375 15.3425 9.09 15.32 9.15 15.3125C9.33 15.2675 9.5175 15.23 9.69 15.17C9.75 15.1475 9.81 15.125 9.87 15.11C10.035 15.05 10.2075 14.9975 10.365 14.93C10.425 14.9075 10.485 14.8775 10.545 14.8475C10.7025 14.78 10.86 14.705 11.0175 14.6225C11.0775 14.5925 11.13 14.555 11.1825 14.525C11.3325 14.435 11.4825 14.3525 11.6325 14.255C11.685 14.225 11.73 14.1875 11.7825 14.15C11.9325 14.045 12.075 13.94 12.21 13.8275C12.255 13.79 12.2925 13.7525 12.3375 13.7225C12.42 13.655 12.5025 13.5875 12.5775 13.52C12.5775 13.5125 12.5775 13.5125 12.57 13.505C14.0625 12.1325 15 10.175 15 8ZM11.205 11.7275C9.1725 10.3625 5.8425 10.3625 3.795 11.7275C3.465 11.945 3.195 12.2 2.97 12.4775C1.83 11.3225 1.125 9.74 1.125 8C1.125 4.4825 3.9825 1.625 7.5 1.625C11.0175 1.625 13.875 4.4825 13.875 8C13.875 9.74 13.17 11.3225 12.03 12.4775C11.8125 12.2 11.535 11.945 11.205 11.7275Z" fill="#292D32"/>
<path d="M7.5 4.19727C5.9475 4.19727 4.6875 5.45727 4.6875 7.00977C4.6875 8.53227 5.88 9.76977 7.4625 9.81477C7.485 9.81477 7.515 9.81477 7.53 9.81477C7.545 9.81477 7.5675 9.81477 7.5825 9.81477C7.59 9.81477 7.5975 9.81477 7.5975 9.81477C9.1125 9.76227 10.305 8.53227 10.3125 7.00977C10.3125 5.45727 9.0525 4.19727 7.5 4.19727Z" fill="#292D32"/>
</svg>
