<svg width="45" height="45" viewBox="0 0 45 45" fill="none" xmlns="http://www.w3.org/2000/svg">
<circle cx="22.5" cy="22.5" r="22.5" fill="#00A4FF"/>
<g clip-path="url(#clip0_31_6518)">
<rect width="15" height="15" transform="translate(14.9997 14.999)" fill="#00A4FF"/>
<path d="M25.67 14.999H23.142V25.2164C23.142 26.4338 22.1698 27.4338 20.9598 27.4338C19.7499 27.4338 18.7776 26.4338 18.7776 25.2164C18.7776 24.0208 19.7283 23.0425 20.895 22.999V20.4338C18.3239 20.4773 16.2497 22.586 16.2497 25.2164C16.2497 27.8686 18.3671 29.999 20.9814 29.999C23.5958 29.999 25.7132 27.8469 25.7132 25.2164V19.9773C26.6639 20.6729 27.8306 21.086 29.0622 21.1077V18.5425C27.1608 18.4773 25.67 16.9121 25.67 14.999Z" fill="white"/>
</g>
<defs>
<clipPath id="clip0_31_6518">
<rect width="15" height="15" fill="white" transform="translate(14.9997 14.999)"/>
</clipPath>
</defs>
</svg>
