<svg width="45" height="45" viewBox="0 0 45 45" fill="none" xmlns="http://www.w3.org/2000/svg">
<circle cx="22.5" cy="22.5" r="22.5" fill="#00A4FF"/>
<g clip-path="url(#clip0_31_6515)">
<rect width="15" height="15" transform="translate(15 14.999)" fill="#00A4FF"/>
<path d="M22.5 16.3496C24.5039 16.3496 24.7412 16.3584 25.5293 16.3936C26.2617 16.4258 26.6572 16.5488 26.9209 16.6514C27.2695 16.7861 27.5215 16.9502 27.7822 17.2109C28.0459 17.4746 28.207 17.7236 28.3418 18.0723C28.4443 18.3359 28.5674 18.7344 28.5996 19.4639C28.6348 20.2549 28.6436 20.4922 28.6436 22.4932C28.6436 24.4971 28.6348 24.7344 28.5996 25.5225C28.5674 26.2549 28.4443 26.6504 28.3418 26.9141C28.207 27.2627 28.043 27.5146 27.7822 27.7754C27.5186 28.0391 27.2695 28.2002 26.9209 28.335C26.6572 28.4375 26.2588 28.5605 25.5293 28.5928C24.7383 28.6279 24.501 28.6367 22.5 28.6367C20.4961 28.6367 20.2588 28.6279 19.4707 28.5928C18.7383 28.5605 18.3428 28.4375 18.0791 28.335C17.7305 28.2002 17.4785 28.0361 17.2178 27.7754C16.9541 27.5117 16.793 27.2627 16.6582 26.9141C16.5557 26.6504 16.4326 26.252 16.4004 25.5225C16.3652 24.7314 16.3564 24.4941 16.3564 22.4932C16.3564 20.4893 16.3652 20.252 16.4004 19.4639C16.4326 18.7314 16.5557 18.3359 16.6582 18.0723C16.793 17.7236 16.957 17.4717 17.2178 17.2109C17.4814 16.9473 17.7305 16.7861 18.0791 16.6514C18.3428 16.5488 18.7412 16.4258 19.4707 16.3936C20.2588 16.3584 20.4961 16.3496 22.5 16.3496ZM22.5 14.999C20.4639 14.999 20.209 15.0078 19.4092 15.043C18.6123 15.0781 18.0645 15.207 17.5898 15.3916C17.0947 15.585 16.6758 15.8398 16.2598 16.2588C15.8408 16.6748 15.5859 17.0938 15.3926 17.5859C15.208 18.0635 15.0791 18.6084 15.0439 19.4053C15.0088 20.208 15 20.4629 15 22.499C15 24.5352 15.0088 24.79 15.0439 25.5898C15.0791 26.3867 15.208 26.9346 15.3926 27.4092C15.5859 27.9043 15.8408 28.3232 16.2598 28.7393C16.6758 29.1553 17.0947 29.4131 17.5869 29.6035C18.0645 29.7881 18.6094 29.917 19.4063 29.9521C20.2061 29.9873 20.4609 29.9961 22.4971 29.9961C24.5332 29.9961 24.7881 29.9873 25.5879 29.9521C26.3848 29.917 26.9326 29.7881 27.4072 29.6035C27.8994 29.4131 28.3184 29.1553 28.7344 28.7393C29.1504 28.3232 29.4082 27.9043 29.5986 27.4121C29.7832 26.9346 29.9121 26.3896 29.9473 25.5928C29.9824 24.793 29.9912 24.5381 29.9912 22.502C29.9912 20.4658 29.9824 20.2109 29.9473 19.4111C29.9121 18.6143 29.7832 18.0664 29.5986 17.5918C29.4141 17.0938 29.1592 16.6748 28.7402 16.2588C28.3242 15.8428 27.9053 15.585 27.4131 15.3945C26.9355 15.21 26.3906 15.0811 25.5938 15.0459C24.791 15.0078 24.5361 14.999 22.5 14.999Z" fill="white"/>
<path d="M22.5 18.6465C20.373 18.6465 18.6475 20.3721 18.6475 22.499C18.6475 24.626 20.373 26.3516 22.5 26.3516C24.627 26.3516 26.3525 24.626 26.3525 22.499C26.3525 20.3721 24.627 18.6465 22.5 18.6465ZM22.5 24.998C21.1201 24.998 20.001 23.8789 20.001 22.499C20.001 21.1191 21.1201 20 22.5 20C23.8799 20 24.999 21.1191 24.999 22.499C24.999 23.8789 23.8799 24.998 22.5 24.998Z" fill="white"/>
<path d="M27.4043 18.4941C27.4043 18.9922 27 19.3936 26.5049 19.3936C26.0068 19.3936 25.6055 18.9893 25.6055 18.4941C25.6055 17.9961 26.0098 17.5947 26.5049 17.5947C27 17.5947 27.4043 17.999 27.4043 18.4941Z" fill="white"/>
</g>
<defs>
<clipPath id="clip0_31_6515">
<rect width="15" height="15" fill="white" transform="translate(15 14.999)"/>
</clipPath>
</defs>
</svg>
