<svg width="55" height="55" viewBox="0 0 55 55" fill="none" xmlns="http://www.w3.org/2000/svg">
<rect width="55" height="55" rx="24" transform="matrix(-1 0 0 1 55 0)" fill="#F7F7F7"/>
<path fill-rule="evenodd" clip-rule="evenodd" d="M38.54 27.7615C38.54 26.946 38.4668 26.1619 38.3309 25.4092H27.5V29.8576H33.6891C33.4225 31.2951 32.6123 32.513 31.3943 33.3285V36.214H35.1109C37.2855 34.2119 38.54 31.2637 38.54 27.7615Z" fill="black"/>
<path fill-rule="evenodd" clip-rule="evenodd" d="M27.4999 38.9998C30.6049 38.9998 33.2081 37.97 35.1108 36.2137L31.3942 33.3282C30.3645 34.0182 29.0472 34.4259 27.4999 34.4259C24.5047 34.4259 21.9695 32.403 21.0651 29.6848H17.2231V32.6644C19.1154 36.4228 23.0045 38.9998 27.4999 38.9998Z" fill="black"/>
<path fill-rule="evenodd" clip-rule="evenodd" d="M21.0652 29.685C20.8352 28.995 20.7045 28.2579 20.7045 27.5C20.7045 26.742 20.8352 26.005 21.0652 25.315V22.3354H17.2232C16.4443 23.8879 16 25.6443 16 27.5C16 29.3557 16.4443 31.112 17.2232 32.6645L21.0652 29.685Z" fill="black"/>
<path fill-rule="evenodd" clip-rule="evenodd" d="M27.4999 20.5739C29.1883 20.5739 30.7042 21.1541 31.8961 22.2936L35.1945 18.9952C33.2029 17.1395 30.5997 16 27.4999 16C23.0045 16 19.1154 18.577 17.2231 22.3355L21.0651 25.315C21.9695 22.5968 24.5047 20.5739 27.4999 20.5739Z" fill="black"/>
</svg>
