<svg width="18" height="16" viewBox="0 0 18 16" fill="none" xmlns="http://www.w3.org/2000/svg">
<path fill-rule="evenodd" clip-rule="evenodd" d="M2.23762 2.36458C1.67099 2.89073 1.2915 3.74445 1.2915 5.08366V10.917C1.2915 12.2562 1.67099 13.1099 2.23762 13.6361C2.81263 14.17 3.67898 14.4587 4.83317 14.4587H13.1665C14.3207 14.4587 15.187 14.17 15.7621 13.6361C16.3287 13.1099 16.7082 12.2562 16.7082 10.917V5.08366C16.7082 3.74445 16.3287 2.89073 15.7621 2.36458C15.187 1.83063 14.3207 1.54199 13.1665 1.54199H4.83317C3.67898 1.54199 2.81263 1.83063 2.23762 2.36458ZM1.38705 1.44858C2.27038 0.62835 3.48736 0.291992 4.83317 0.291992H13.1665C14.5123 0.291992 15.7293 0.62835 16.6126 1.44858C17.5043 2.27659 17.9582 3.5062 17.9582 5.08366V10.917C17.9582 12.4945 17.5043 13.7241 16.6126 14.5521C15.7293 15.3723 14.5123 15.7087 13.1665 15.7087H4.83317C3.48736 15.7087 2.27038 15.3723 1.38705 14.5521C0.495354 13.7241 0.0415039 12.4945 0.0415039 10.917V5.08366C0.0415039 3.5062 0.495354 2.27659 1.38705 1.44858Z" fill="#0094F8"/>
<path fill-rule="evenodd" clip-rule="evenodd" d="M15.1357 4.09249C15.3468 4.36563 15.2964 4.75814 15.0233 4.96919L10.4008 8.54111C9.57543 9.17878 8.42368 9.17878 7.59834 8.54111L2.97579 4.96919C2.70265 4.75814 2.65233 4.36563 2.86339 4.09249C3.07444 3.81935 3.46695 3.76903 3.74009 3.98009L8.36259 7.55194C8.73776 7.84186 9.26134 7.84186 9.63643 7.55194L14.259 3.98009C14.5322 3.76903 14.9247 3.81935 15.1357 4.09249Z" fill="#0094F8"/>
</svg>
