<svg width="38" height="38" viewBox="0 0 38 38" fill="none" xmlns="http://www.w3.org/2000/svg">
<rect width="38" height="38" rx="19" fill="#1FD300"/>
<path d="M16.3333 19H16.3393M18.994 19H19M21.6607 19H21.6667" stroke="white" stroke-width="2" stroke-linecap="round" stroke-linejoin="round"/>
<path d="M19 25.6663C22.6819 25.6663 25.6667 22.6815 25.6667 18.9997C25.6667 15.3178 22.6819 12.333 19 12.333C15.3181 12.333 12.3333 15.3178 12.3333 18.9997C12.3333 20.0661 12.5838 21.0741 13.029 21.968C13.1473 22.2055 13.1867 22.4771 13.1181 22.7334L12.721 24.2175C12.5486 24.8617 13.138 25.451 13.7822 25.2787L15.2663 24.8816C15.5226 24.813 15.7942 24.8524 16.0317 24.9707C16.9256 25.4159 17.9335 25.6663 19 25.6663Z" stroke="white" stroke-width="2"/>
</svg>
