<svg width="12" height="12" viewBox="0 0 12 12" fill="none" xmlns="http://www.w3.org/2000/svg">
<path d="M11.0997 9.92587C11.2708 10.111 11.3637 10.3552 11.3588 10.6072C11.3539 10.8593 11.2516 11.0997 11.0734 11.278C10.8952 11.4564 10.6549 11.5588 10.4028 11.5639C10.1507 11.5689 9.9065 11.4763 9.72125 11.3052L5.99999 7.58397L2.27873 11.3052C2.18953 11.4017 2.08177 11.4792 1.96191 11.533C1.84205 11.5868 1.71255 11.6159 1.58118 11.6184C1.44981 11.621 1.31929 11.597 1.19742 11.5479C1.07556 11.4987 0.964867 11.4255 0.871991 11.3326C0.779115 11.2396 0.705965 11.1289 0.656929 11.007C0.607892 10.8851 0.583979 10.7546 0.586623 10.6232C0.589268 10.4918 0.618414 10.3624 0.672316 10.2425C0.726218 10.1227 0.803765 10.015 0.900305 9.92587L4.62157 6.2046L0.900305 2.48524C0.803765 2.39611 0.726218 2.2884 0.672316 2.16858C0.618414 2.04875 0.589268 1.91927 0.586623 1.78791C0.583979 1.65654 0.607892 1.526 0.656929 1.4041C0.705965 1.2822 0.779115 1.17146 0.871991 1.07852C0.964867 0.98558 1.07556 0.912354 1.19742 0.863234C1.31929 0.814114 1.44981 0.790111 1.58118 0.792665C1.71255 0.795219 1.84205 0.824277 1.96191 0.878096C2.08177 0.931916 2.18953 1.00939 2.27873 1.10587L5.99999 4.82618L9.72125 1.10492C9.9065 0.933904 10.1507 0.841221 10.4028 0.846295C10.6549 0.851368 10.8952 0.953804 11.0734 1.13214C11.2516 1.31047 11.3539 1.55085 11.3588 1.80292C11.3637 2.05499 11.2708 2.29916 11.0997 2.48429L7.37841 6.2046L11.0997 9.92587Z" fill="black"/>
</svg>
