<svg width="38" height="38" viewBox="0 0 38 38" fill="none" xmlns="http://www.w3.org/2000/svg">
<rect width="38" height="38" rx="19" fill="#1FD300"/>
<g clip-path="url(#clip0_31_6463)">
<path d="M19 11C14.5817 11 11 14.5818 11 19C11 23.4185 14.5817 27 19 27C23.4183 27 27 23.4185 27 19C27 14.5818 23.4183 11 19 11ZM19 23C18.4477 23 18 22.5525 18 22C18 21.4478 18.4477 21 19 21C19.5523 21 20 21.4478 20 22C20 22.5525 19.5523 23 19 23ZM19.7637 18.8491C19.606 18.9141 19.5 19.0913 19.5 19.29V19.5C19.5 19.7764 19.2764 20 19 20C18.7236 20 18.5 19.7764 18.5 19.5V19.29C18.5 18.6821 18.8462 18.146 19.3818 17.9248C19.8193 17.7436 20.0669 17.2876 19.9834 16.8149C19.9146 16.4213 19.5786 16.0854 19.1856 16.0166C18.8809 15.9628 18.5874 16.0405 18.3574 16.2338C18.1304 16.4248 18 16.7041 18 17C18 17.2764 17.7764 17.5 17.5 17.5C17.2236 17.5 17 17.2764 17 17C17 16.4077 17.2602 15.8491 17.7143 15.4678C18.168 15.0869 18.7661 14.9282 19.3584 15.0318C20.165 15.1733 20.8271 15.8355 20.9687 16.6421C21.1333 17.5796 20.6382 18.4873 19.7637 18.8491Z" fill="white"/>
</g>
<defs>
<clipPath id="clip0_31_6463">
<rect width="16" height="16" fill="white" transform="translate(11 11)"/>
</clipPath>
</defs>
</svg>
