<svg width="15" height="14" viewBox="0 0 15 14" fill="none" xmlns="http://www.w3.org/2000/svg">
<path d="M3.08302 0.364038C3.32487 0.28852 3.5758 0.25 3.82842 0.25C5.04269 0.25 5.94232 1.31924 5.94231 2.52843V5.24081C5.94231 6.45003 5.04269 7.51923 3.82842 7.51923C3.57579 7.51923 3.32487 7.48075 3.08302 7.40523L2.89814 7.34748C2.83502 7.32775 2.77291 7.30593 2.71188 7.282C3.67508 9.23808 5.26193 10.8249 7.218 11.7881C7.19407 11.7271 7.17225 11.665 7.15252 11.6018L7.09477 11.417C7.01925 11.1751 6.98077 10.9242 6.98077 10.6715C6.98077 9.4573 8.04997 8.55767 9.2592 8.55767H11.9716C13.1807 8.55767 14.25 9.4573 14.25 10.6715C14.25 10.9242 14.2115 11.1751 14.1359 11.417L14.0782 11.6018C13.742 12.6788 12.7801 13.4587 11.6295 13.6615C10.9596 13.7795 10.2712 13.7795 9.60127 13.6615C9.57487 13.6568 9.54862 13.6519 9.52245 13.6467C5.13214 12.8019 1.69803 9.36783 0.853365 4.97747C0.848122 4.95132 0.84318 4.92508 0.838537 4.89873C0.720487 4.22882 0.720487 3.54041 0.838537 2.8705C1.04128 1.71992 1.8212 0.758043 2.89814 0.421765L3.08302 0.364038Z" fill="white"/>
<path d="M8.33459 1.4433C9.66494 1.06425 11.1136 1.3813 12.1161 2.38384C13.1187 3.38638 13.4357 4.83505 13.0567 6.16535C12.9781 6.4412 13.138 6.72845 13.4137 6.80705C13.6895 6.88558 13.9768 6.72575 14.0554 6.44998C14.5295 4.78577 14.1398 2.93895 12.8504 1.64953C11.561 0.36012 9.71421 -0.0295801 8.05004 0.444585C7.77419 0.523162 7.61436 0.810435 7.69296 1.08622C7.77149 1.36201 8.05881 1.52188 8.33459 1.4433Z" fill="white"/>
<path d="M9.63464 3.3305C9.98496 3.26072 10.4287 3.37838 10.7752 3.7248C11.1216 4.07122 11.2393 4.51499 11.1695 4.86534C11.1135 5.14658 11.296 5.41997 11.5773 5.47599C11.8585 5.53201 12.1319 5.34943 12.1879 5.06819C12.3312 4.349 12.0799 3.56087 11.5095 2.9905C10.9391 2.42013 10.151 2.16881 9.43176 2.31205C9.15059 2.36807 8.96796 2.64146 9.02399 2.92271C9.08001 3.20394 9.35339 3.38652 9.63464 3.3305Z" fill="white"/>
</svg>
