<svg width="17" height="14" viewBox="0 0 17 14" fill="none" xmlns="http://www.w3.org/2000/svg">
<path fill-rule="evenodd" clip-rule="evenodd" d="M4.75 0.0625C3.53877 0.0625 2.44349 0.365222 1.64849 1.10343C0.845965 1.84864 0.4375 2.95529 0.4375 4.375V9.625C0.4375 11.0448 0.845965 12.1514 1.64849 12.8966C2.44349 13.6348 3.53877 13.9375 4.75 13.9375H12.25C13.4613 13.9375 14.5566 13.6348 15.3515 12.8966C16.154 12.1514 16.5625 11.0448 16.5625 9.625V4.375C16.5625 2.95529 16.154 1.84864 15.3515 1.10343C14.5566 0.365222 13.4613 0.0625 12.25 0.0625H4.75ZM13.9214 4.27173C14.1672 4.08178 14.2125 3.72852 14.0225 3.4827C13.8326 3.23687 13.4793 3.19158 13.2335 3.38153L9.07315 6.5962C8.73557 6.85713 8.26435 6.85713 7.9267 6.5962L3.76645 3.38153C3.52062 3.19158 3.16737 3.23687 2.97741 3.4827C2.78746 3.72852 2.83275 4.08178 3.07858 4.27173L7.23887 7.48645C7.98167 8.06035 9.01825 8.06035 9.76105 7.48645L13.9214 4.27173Z" fill="white"/>
</svg>
