<svg width="17" height="18" viewBox="0 0 17 18" fill="none" xmlns="http://www.w3.org/2000/svg">
<path d="M7.9375 13.5C7.9375 13.8107 8.18935 14.0625 8.5 14.0625C8.81065 14.0625 9.0625 13.8107 9.0625 13.5V11.25C9.0625 10.9394 8.81065 10.6875 8.5 10.6875C8.18935 10.6875 7.9375 10.9394 7.9375 11.25V13.5Z" fill="#292D32"/>
<path fill-rule="evenodd" clip-rule="evenodd" d="M8.5 0.9375C7.95618 0.9375 7.46005 1.08683 6.91696 1.34032C6.39124 1.58571 5.78329 1.94787 5.02137 2.40175L3.92967 3.05207C3.09033 3.55204 2.42151 3.95045 1.91511 4.33143C1.39236 4.72472 0.999994 5.1297 0.744304 5.66304C0.488494 6.19664 0.419157 6.7551 0.441394 7.40688C0.462927 8.03775 0.573289 8.80478 0.711672 9.76643L0.930942 11.2903C1.10898 12.5277 1.25026 13.5096 1.46134 14.2741C1.67892 15.0622 1.98765 15.6877 2.54474 16.1674C3.10138 16.6467 3.76738 16.8611 4.58226 16.9633C5.37366 17.0625 6.37211 17.0625 7.63173 17.0625H9.36828C10.6279 17.0625 11.6264 17.0625 12.4178 16.9633C13.2327 16.8611 13.8987 16.6467 14.4553 16.1674C15.0123 15.6877 15.3211 15.0622 15.5387 14.2741C15.7497 13.5097 15.891 12.5277 16.0691 11.2903L16.2883 9.76643C16.4268 8.8047 16.5371 8.03775 16.5586 7.40688C16.5809 6.7551 16.5115 6.19664 16.2557 5.66304C16 5.1297 15.6077 4.72472 15.0849 4.33143C14.5785 3.95045 13.9097 3.55204 13.0704 3.05207L11.9787 2.40175C11.2167 1.94787 10.6088 1.58571 10.083 1.34032C9.53995 1.08683 9.04383 0.9375 8.5 0.9375ZM5.57169 3.38341C6.36482 2.91094 6.92442 2.57836 7.39278 2.35975C7.8496 2.14652 8.1781 2.0625 8.5 2.0625C8.82198 2.0625 9.1504 2.14652 9.60723 2.35975C10.0756 2.57836 10.6352 2.91094 11.4283 3.38341L12.467 4.00211C13.3402 4.5223 13.9564 4.89025 14.4086 5.23042C14.8499 5.56246 15.0916 5.8372 15.2412 6.14938C15.3908 6.46129 15.453 6.82003 15.4343 7.36852C15.4151 7.93087 15.3142 8.63723 15.1702 9.63832L14.9611 11.0913C14.7762 12.3762 14.6441 13.2871 14.4543 13.9747C14.2687 14.6467 14.0454 15.0357 13.7212 15.3148C13.3965 15.5944 12.9757 15.7595 12.2778 15.847C11.5645 15.9365 10.6366 15.9375 9.32958 15.9375H7.67043C6.36343 15.9375 5.43554 15.9365 4.72225 15.847C4.02435 15.7595 3.60347 15.5944 3.27881 15.3148C2.95461 15.0357 2.73129 14.6467 2.54577 13.9747C2.35593 13.2871 2.22378 12.3762 2.0389 11.0913L1.82982 9.63825C1.68578 8.63722 1.58493 7.93087 1.56574 7.36852C1.54703 6.82003 1.60922 6.46129 1.75875 6.14938C1.90841 5.8372 2.1501 5.56246 2.59146 5.23042C3.04362 4.89025 3.65982 4.5223 4.53306 4.00211L5.57169 3.38341Z" fill="#292D32"/>
</svg>
