<svg width="25" height="25" viewBox="0 0 25 25" fill="none" xmlns="http://www.w3.org/2000/svg">
<path fill-rule="evenodd" clip-rule="evenodd" d="M24.5 12.5C24.5 19.1274 19.1274 24.5 12.5 24.5C5.87258 24.5 0.5 19.1274 0.5 12.5C0.5 5.87258 5.87258 0.5 12.5 0.5C19.1274 0.5 24.5 5.87258 24.5 12.5ZM12.5 7.4C11.7544 7.4 11.15 8.00442 11.15 8.75C11.15 9.24705 10.747 9.65 10.25 9.65C9.75295 9.65 9.35 9.24705 9.35 8.75C9.35 7.0103 10.7604 5.6 12.5 5.6C14.2396 5.6 15.65 7.0103 15.65 8.75C15.65 9.60301 15.3098 10.3784 14.7596 10.9448C14.6488 11.0587 14.5432 11.1643 14.4424 11.265C14.1835 11.5237 13.9566 11.7504 13.7575 12.0062C13.4947 12.3439 13.4 12.5922 13.4 12.8V13.7C13.4 14.197 12.997 14.6 12.5 14.6C12.003 14.6 11.6 14.197 11.6 13.7V12.8C11.6 12.0138 11.966 11.3773 12.337 10.9006C12.6115 10.548 12.9565 10.2036 13.2366 9.92415C13.321 9.83985 13.3995 9.76147 13.4684 9.69052C13.7055 9.44652 13.85 9.11605 13.85 8.75C13.85 8.00442 13.2456 7.4 12.5 7.4ZM12.5 18.5C13.1628 18.5 13.7 17.9628 13.7 17.3C13.7 16.6372 13.1628 16.1 12.5 16.1C11.8372 16.1 11.3 16.6372 11.3 17.3C11.3 17.9628 11.8372 18.5 12.5 18.5Z" fill="white"/>
</svg>
