<svg width="38" height="38" viewBox="0 0 38 38" fill="none" xmlns="http://www.w3.org/2000/svg">
<rect width="38" height="38" rx="19" fill="#1FD300"/>
<path fill-rule="evenodd" clip-rule="evenodd" d="M21.0191 13.75H16.9811C16.1194 13.7548 15.2948 14.1016 14.6889 14.7143C14.083 15.327 13.7453 16.1553 13.7501 17.017V20.983C13.7453 21.8447 14.083 22.673 14.6889 23.2857C15.2948 23.8983 16.1194 24.2453 16.9811 24.25H21.0191C21.8807 24.2453 22.7052 23.8983 23.3111 23.2857C23.9171 22.673 24.2548 21.8447 24.2501 20.983V17.017C24.2548 16.1553 23.9171 15.327 23.3111 14.7143C22.7052 14.1016 21.8807 13.7548 21.0191 13.75Z" stroke="white" stroke-width="4" stroke-linecap="round" stroke-linejoin="round"/>
<path d="M16.0001 16.75C15.6894 16.75 15.4376 17.0018 15.4376 17.3125C15.4376 17.6232 15.6894 17.875 16.0001 17.875V16.75ZM19.0001 17.875C19.3107 17.875 19.5626 17.6232 19.5626 17.3125C19.5626 17.0018 19.3107 16.75 19.0001 16.75V17.875ZM18.4376 17.3125C18.4376 17.6232 18.6894 17.875 19.0001 17.875C19.3107 17.875 19.5626 17.6232 19.5626 17.3125H18.4376ZM19.5626 16C19.5626 15.6893 19.3107 15.4375 19.0001 15.4375C18.6894 15.4375 18.4376 15.6893 18.4376 16H19.5626ZM19.0001 16.75C18.6894 16.75 18.4376 17.0018 18.4376 17.3125C18.4376 17.6232 18.6894 17.875 19.0001 17.875V16.75ZM21.6251 17.875C21.9357 17.875 22.1876 17.6232 22.1876 17.3125C22.1876 17.0018 21.9357 16.75 21.6251 16.75V17.875ZM21.6251 16.75C21.3144 16.75 21.0626 17.0018 21.0626 17.3125C21.0626 17.6232 21.3144 17.875 21.6251 17.875V16.75ZM22.0001 17.875C22.3107 17.875 22.5626 17.6232 22.5626 17.3125C22.5626 17.0018 22.3107 16.75 22.0001 16.75V17.875ZM22.0854 17.6358C22.2639 17.3817 22.2027 17.0308 21.9485 16.8522C21.6942 16.6736 21.3435 16.7349 21.1648 16.9891L22.0854 17.6358ZM18.4553 19.9587C18.2184 20.1598 18.1895 20.5148 18.3906 20.7515C18.5916 20.9884 18.9466 21.0173 19.1834 20.8163L18.4553 19.9587ZM16.9748 21.1752C16.7264 21.3618 16.6763 21.7144 16.8628 21.9628C17.0494 22.2112 17.402 22.2614 17.6504 22.0748L16.9748 21.1752ZM19.1927 20.8052C19.425 20.5991 19.4463 20.2436 19.2401 20.0112C19.034 19.7788 18.6784 19.7576 18.4461 19.9637L19.1927 20.8052ZM18.3768 20.7318C18.5687 20.9762 18.9222 21.0188 19.1667 20.827C19.411 20.6351 19.4536 20.2816 19.2618 20.0372L18.3768 20.7318ZM18.3895 18.585C18.2639 18.3009 17.9317 18.1725 17.6476 18.2981C17.3635 18.4237 17.235 18.7559 17.3607 19.04L18.3895 18.585ZM19.2707 20.0518C19.0853 19.8025 18.7329 19.7508 18.4836 19.9362C18.2344 20.1216 18.1826 20.4739 18.368 20.7232L19.2707 20.0518ZM20.4215 22.4956C20.6952 22.6425 21.0362 22.5398 21.1832 22.2661C21.3301 21.9924 21.2274 21.6514 20.9538 21.5044L20.4215 22.4956ZM16.0001 17.875H19.0001V16.75H16.0001V17.875ZM19.5626 17.3125V16H18.4376V17.3125H19.5626ZM19.0001 17.875H21.6251V16.75H19.0001V17.875ZM21.6251 17.875H22.0001V16.75H21.6251V17.875ZM21.1648 16.9891C20.3914 18.09 19.4809 19.0879 18.4553 19.9587L19.1834 20.8163C20.2818 19.8836 21.257 18.8149 22.0854 17.6358L21.1648 16.9891ZM17.6504 22.0748C18.0335 21.7871 18.5898 21.3401 19.1927 20.8052L18.4461 19.9637C17.8653 20.4789 17.3327 20.9064 16.9748 21.1752L17.6504 22.0748ZM19.2618 20.0372C18.9118 19.5913 18.6188 19.1034 18.3895 18.585L17.3607 19.04C17.6277 19.6439 17.9691 20.2123 18.3768 20.7318L19.2618 20.0372ZM18.368 20.7232C18.9141 21.4575 19.6152 22.0626 20.4215 22.4956L20.9538 21.5044C20.2929 21.1496 19.7184 20.6536 19.2707 20.0518L18.368 20.7232Z" fill="white"/>
</svg>
