<svg width="21" height="21" viewBox="0 0 21 21" fill="none" xmlns="http://www.w3.org/2000/svg">
<path d="M18.3619 2.81362L11.3068 0.654245C10.7802 0.448585 10.1484 0.448585 9.5166 0.654245L2.56674 2.81362C1.09252 3.22493 0.25011 4.56171 0.56602 6.00129L1.72433 12.171C2.25084 15.0501 3.72506 17.3123 5.93639 18.6491C7.93711 19.883 9.4113 20.5 10.5696 20.5C11.728 20.5 13.2022 19.883 15.2029 18.6491C17.4142 17.3123 18.8885 15.0501 19.415 12.171L20.468 6.00129C20.6786 4.56171 19.8362 3.22493 18.3619 2.81362ZM14.1499 8.8805L9.9378 12.9936C9.7272 13.0964 9.6219 13.1992 9.4113 13.1992C9.2007 13.1992 8.9901 13.0964 8.8848 12.9936L6.7788 10.937C6.46289 10.6285 6.46289 10.1144 6.7788 9.8059C7.0947 9.4974 7.62121 9.4974 7.93711 9.8059L9.5166 11.3483L13.2022 7.74937C13.5181 7.44088 14.0446 7.44088 14.3605 7.74937C14.4658 8.16068 14.4658 8.57199 14.1499 8.8805Z" fill="white"/>
</svg>
