<svg width="7" height="9" viewBox="0 0 7 9" fill="none" xmlns="http://www.w3.org/2000/svg">
<path fill-rule="evenodd" clip-rule="evenodd" d="M0.504416 5.56692C0.345761 5.72555 0.345761 5.98278 0.504416 6.14143L3.21275 8.84976C3.3714 9.00841 3.62859 9.00841 3.78724 8.84976L6.49559 6.14143C6.65424 5.98278 6.65424 5.72555 6.49559 5.56692C6.33694 5.40827 6.07971 5.40827 5.92107 5.56692L3.90624 7.58173V3.14583C3.90624 2.75946 4.02552 2.17083 4.37137 1.69048C4.70228 1.23088 5.2574 0.843751 6.20833 0.843751C6.43269 0.843751 6.61458 0.66186 6.61458 0.437501C6.61458 0.213143 6.43269 0.031251 6.20833 0.031251C4.99259 0.031251 4.19354 0.546918 3.71195 1.21577C3.2453 1.86387 3.09374 2.62941 3.09374 3.14583V7.58173L1.07891 5.56692C0.920253 5.40827 0.66307 5.40827 0.504416 5.56692Z" fill="#FF4659"/>
</svg>
