<svg width="14" height="16" viewBox="0 0 14 16" fill="none" xmlns="http://www.w3.org/2000/svg">
<path d="M13.4658 5.3375C12.6783 1.8725 9.65583 0.3125 7.00083 0.3125C7.00083 0.3125 7.00083 0.3125 6.99333 0.3125C4.3458 0.3125 1.3158 1.865 0.528304 5.33C-0.349196 9.2 2.0208 12.4775 4.1658 14.54C4.9608 15.305 5.98083 15.6875 7.00083 15.6875C8.02083 15.6875 9.04083 15.305 9.82833 14.54C11.9733 12.4775 14.3433 9.2075 13.4658 5.3375ZM7.00083 9.095C5.69583 9.095 4.6383 8.0375 4.6383 6.7325C4.6383 5.4275 5.69583 4.37 7.00083 4.37C8.30583 4.37 9.36333 5.4275 9.36333 6.7325C9.36333 8.0375 8.30583 9.095 7.00083 9.095Z" fill="#00A4FF"/>
</svg>
