<svg width="16" height="16" viewBox="0 0 16 16" fill="none" xmlns="http://www.w3.org/2000/svg">
<path d="M13.8964 2.23522L8.6051 0.615684C8.21015 0.461439 7.7363 0.461439 7.26245 0.615684L2.05006 2.23522C0.94439 2.5437 0.312583 3.54628 0.549515 4.62596L1.41825 9.25325C1.81313 11.4126 2.9188 13.1092 4.57729 14.1118C6.07783 15.0372 7.18348 15.5 8.0522 15.5C8.921 15.5 10.0266 15.0372 11.5272 14.1118C13.1856 13.1092 14.2914 11.4126 14.6863 9.25325L15.476 4.62596C15.634 3.54628 15.0022 2.5437 13.8964 2.23522ZM10.7374 6.78537L7.57835 9.8702C7.4204 9.9473 7.34142 10.0244 7.18347 10.0244C7.02552 10.0244 6.86758 9.9473 6.7886 9.8702L5.2091 8.32775C4.97217 8.09637 4.97217 7.7108 5.2091 7.47942C5.44602 7.24805 5.84091 7.24805 6.07783 7.47942L7.26245 8.63622L10.0266 5.93702C10.2636 5.70566 10.6585 5.70566 10.8954 5.93702C10.9743 6.24551 10.9743 6.554 10.7374 6.78537Z" fill="#1FD300"/>
</svg>
