<svg width="18" height="18" viewBox="0 0 18 18" fill="none" xmlns="http://www.w3.org/2000/svg">
<path fill-rule="evenodd" clip-rule="evenodd" d="M17.2286 10.1895C17.6546 10.1895 18 10.5348 18 10.9609C18 14.2003 15.653 16.966 12.4215 17.6138L11.9089 17.7165C10.0412 18.0909 8.1145 18.0944 6.24541 17.7266L5.58492 17.5967C2.35258 16.9607 0 14.1991 0 10.9609C0 10.5348 0.34538 10.1895 0.77143 10.1895C1.19748 10.1895 1.54286 10.5348 1.54286 10.9609C1.54286 13.428 3.34012 15.5826 5.88276 16.0828L6.54325 16.2128C8.2139 16.5415 9.9363 16.5384 11.6057 16.2038L12.1183 16.101C14.6623 15.5911 16.4571 13.4315 16.4571 10.9609C16.4571 10.5348 16.8025 10.1895 17.2286 10.1895Z" fill="#00A4FF"/>
<path fill-rule="evenodd" clip-rule="evenodd" d="M11.4568 1.78712C9.7861 1.45843 8.0637 1.46149 6.39434 1.79613L5.88172 1.89888C3.33767 2.40885 1.54286 4.56836 1.54286 7.039C1.54286 7.4651 1.19748 7.8104 0.77143 7.8104C0.34538 7.8104 0 7.4651 0 7.039C0 3.79956 2.34703 1.03387 5.57848 0.386121L6.09111 0.283361C7.9588 -0.0910294 9.8855 -0.0944595 11.7546 0.27329L12.4151 0.403231C15.6474 1.03918 18 3.80082 18 7.039C18 7.4651 17.6546 7.8104 17.2286 7.8104C16.8025 7.8104 16.4571 7.4651 16.4571 7.039C16.4571 4.57191 14.6599 2.41732 12.1172 1.91707L11.4568 1.78712Z" fill="#00A4FF"/>
<path fill-rule="evenodd" clip-rule="evenodd" d="M12.4464 9.98807C10.2523 9.01297 7.74769 9.01297 5.55362 9.98807L4.68473 10.3743C4.2954 10.5473 3.83951 10.372 3.66648 9.98267C3.49344 9.59327 3.66878 9.13737 4.05811 8.96437L4.927 8.57817C7.52009 7.42577 10.4799 7.42577 13.073 8.57817L13.9419 8.96437C14.3312 9.13737 14.5065 9.59327 14.3335 9.98267C14.1605 10.372 13.7046 10.5473 13.3153 10.3743L12.4464 9.98807Z" fill="#00A4FF"/>
</svg>
