<svg width="15" height="16" viewBox="0 0 15 16" fill="none" xmlns="http://www.w3.org/2000/svg">
<path fill-rule="evenodd" clip-rule="evenodd" d="M15 8C15 12.1421 11.6421 15.5 7.5 15.5C3.35786 15.5 0 12.1421 0 8C0 3.85786 3.35786 0.5 7.5 0.5C11.6421 0.5 15 3.85786 15 8ZM7.5 4.8125C7.03403 4.8125 6.65625 5.19026 6.65625 5.65625C6.65625 5.96691 6.4044 6.21875 6.09375 6.21875C5.78309 6.21875 5.53125 5.96691 5.53125 5.65625C5.53125 4.56894 6.41273 3.6875 7.5 3.6875C8.58728 3.6875 9.46875 4.56894 9.46875 5.65625C9.46875 6.18938 9.25613 6.674 8.91225 7.028C8.84303 7.09918 8.77703 7.16518 8.71403 7.2281C8.55218 7.3898 8.41035 7.53148 8.28593 7.69138C8.12168 7.90243 8.0625 8.0576 8.0625 8.1875V8.75C8.0625 9.06065 7.81065 9.3125 7.5 9.3125C7.18935 9.3125 6.9375 9.06065 6.9375 8.75V8.1875C6.9375 7.6961 7.16625 7.2983 7.39815 7.0004C7.56968 6.77998 7.7853 6.56473 7.96035 6.3901C8.01315 6.33741 8.0622 6.28842 8.10525 6.24408C8.25345 6.09157 8.34375 5.88503 8.34375 5.65625C8.34375 5.19026 7.96598 4.8125 7.5 4.8125ZM7.5 11.75C7.91423 11.75 8.25 11.4142 8.25 11C8.25 10.5858 7.91423 10.25 7.5 10.25C7.08578 10.25 6.75 10.5858 6.75 11C6.75 11.4142 7.08578 11.75 7.5 11.75Z" fill="#1C274C"/>
</svg>
