<svg width="61" height="52" viewBox="0 0 61 52" fill="none" xmlns="http://www.w3.org/2000/svg">
<path d="M49.5 22C43.5 22 38.5 17 38.5 11C38.5 5 43.5 0 49.5 0C55.5 0 60.5 5 60.5 11C60.5 17 55.5 22 49.5 22Z" fill="#1FD300"/>
<path d="M34.5 11C34.5 8.4 35.1 6 36.3 4H10.5C5.89999 4 2.09999 7 0.899994 11.2L28.5 29.6L39.5 22.2C36.5 19.4 34.5 15.4 34.5 11Z" fill="#00A4FF"/>
<path d="M49.5 25.9998C47.3 25.9998 45.1 25.3998 43.3 24.5998L29.7 33.5998C29.3 33.7998 28.9 33.9998 28.5 33.9998C28.1 33.9998 27.7 33.7998 27.3 33.5998L0.5 15.7998V41.9998C0.5 47.5998 4.9 51.9998 10.5 51.9998H46.5C52.1 51.9998 56.5 47.5998 56.5 41.9998V24.1998C54.5 25.3998 52.1 25.9998 49.5 25.9998Z" fill="#00A4FF"/>
</svg>
