<svg width="15" height="12" viewBox="0 0 15 12" fill="none" xmlns="http://www.w3.org/2000/svg">
<path d="M7.87429 2.48479C8.54982 1.27293 8.88762 0.666992 9.39262 0.666992C9.89762 0.666992 10.2354 1.27293 10.9109 2.48479L11.0857 2.79832C11.2776 3.14269 11.3736 3.31488 11.5233 3.42849C11.673 3.5421 11.8594 3.58427 12.2322 3.66862L12.5715 3.74541C13.8834 4.04222 14.5393 4.19063 14.6953 4.69246C14.8514 5.19426 14.4042 5.71719 13.5099 6.76293L13.2785 7.03353C13.0244 7.33066 12.8973 7.47926 12.8402 7.66313C12.783 7.84693 12.8022 8.04519 12.8406 8.44166L12.8756 8.80266C13.0108 10.198 13.0784 10.8957 12.6698 11.2058C12.2613 11.5159 11.6472 11.2331 10.4189 10.6676L10.1012 10.5213C9.75209 10.3606 9.57762 10.2803 9.39262 10.2803C9.20762 10.2803 9.03309 10.3606 8.68409 10.5213L8.36629 10.6676C7.13802 11.2331 6.52389 11.5159 6.11535 11.2058C5.70679 10.8957 5.7744 10.198 5.90961 8.80266L5.94459 8.44166C5.98301 8.04519 6.00222 7.84693 5.94506 7.66313C5.88789 7.47926 5.76083 7.33066 5.50669 7.03353L5.27532 6.76293C4.381 5.71719 3.93384 5.19426 4.08989 4.69246C4.24594 4.19063 4.90185 4.04222 6.21369 3.74541L6.55307 3.66862C6.92582 3.58427 7.11222 3.5421 7.26189 3.42849C7.41156 3.31488 7.50755 3.14269 7.69949 2.79832L7.87429 2.48479Z" fill="white"/>
<path opacity="0.5" fill-rule="evenodd" clip-rule="evenodd" d="M5.83034 1.4686C4.50926 1.08791 3.09215 1.28899 1.72487 2.08971L1.5861 2.17098C1.34781 2.31053 1.04152 2.23048 0.901965 1.99219C0.762418 1.75391 0.842465 1.44761 1.08075 1.30806L1.21952 1.22679C2.79314 0.30524 4.49136 0.0420594 6.10723 0.507699L6.24582 0.547633C6.51116 0.624099 6.66429 0.901186 6.58782 1.16653C6.51136 1.43188 6.23427 1.585 5.96892 1.50853L5.83034 1.4686ZM3.2242 4.62463C3.24764 4.89979 3.04359 5.14186 2.76844 5.16526C2.66634 5.17399 2.58805 5.17893 2.52244 5.18313C2.40419 5.19059 2.32714 5.19553 2.22602 5.21493C2.09503 5.24006 1.92494 5.29326 1.61628 5.44759C1.36928 5.57113 1.06895 5.47099 0.945458 5.22399C0.821965 4.97699 0.922071 4.67666 1.16906 4.55319C1.52706 4.37419 1.78689 4.28094 2.03752 4.23283C2.20212 4.20124 2.37204 4.19017 2.52484 4.18022C2.58036 4.1766 2.63363 4.17313 2.68356 4.16888C2.9587 4.14544 3.20076 4.34949 3.2242 4.62463ZM3.94526 8.57106C3.15596 8.38606 2.32436 8.56953 1.70212 9.05979C1.48522 9.23073 1.17084 9.19339 0.999931 8.97653C0.829031 8.75959 0.866318 8.44526 1.08322 8.27433C1.94842 7.59259 3.09275 7.34419 4.17341 7.59739C4.44227 7.66039 4.60915 7.92946 4.54615 8.19833C4.48315 8.46719 4.21412 8.63406 3.94526 8.57106Z" fill="white"/>
</svg>
