<svg width="15" height="16" viewBox="0 0 15 16" fill="none" xmlns="http://www.w3.org/2000/svg">
<path d="M12.2461 3.2525L3.4411 12.0575C3.1111 12.3875 2.5561 12.3425 2.2861 11.9525C1.3561 10.595 0.808594 8.99 0.808594 7.34V4.0475C0.808594 3.4325 1.2736 2.735 1.8436 2.5025L6.02108 0.7925C6.96608 0.4025 8.01608 0.4025 8.96108 0.7925L11.9986 2.03C12.4936 2.2325 12.6211 2.8775 12.2461 3.2525Z" fill="#FF4659"/>
<path d="M12.9525 4.28119C13.44 3.86869 14.1825 4.22119 14.1825 4.85869V7.3412C14.1825 11.0087 11.52 14.4437 7.8825 15.4487C7.635 15.5162 7.365 15.5162 7.11 15.4487C6.045 15.1487 5.05501 14.6462 4.20751 13.9862C3.84751 13.7087 3.81001 13.1837 4.12501 12.8612C5.76001 11.1887 10.545 6.31369 12.9525 4.28119Z" fill="#FF4659"/>
</svg>
